<svg xmlns="http://www.w3.org/2000/svg" width="104" height="86" version="1"><linearGradient id="a" x2="104" y1="42.898" y2="42.898" gradientUnits="userSpaceOnUse"><stop offset="0" stop-color="#fff"/><stop offset=".408" stop-color="#D1D2D3"/><stop offset=".797" stop-color="#F1F1F1"/><stop offset="1" stop-color="#D1D2D3"/></linearGradient><path fill="url(#a)" d="M84.94-.1c-4.57 0-6.68 3.08-6.68 3.08S22.24 71.4 13.1 78.83C5.16 85.3.96 85.86 0 85.9h74.1L104-.1H84.94z"/><path fill="#3DA5EE" d="M77 4.5a4215.43 4215.43 0 01-15.57 18.86c.74 1.3 1.53 4.43 1.7 4.97A74.55 74.55 0 0165 35.8c1.6 8.15 1.7 16.55.45 24.76a63.08 63.08 0 01-1.47 6.9c-.85 3.1-2.04 6.15-3.76 8.9a41.75 41.75 0 01-3.75 5.03 38.75 38.75 0 01-2.16 2.28c-.38.38-1.84 2.22-2.35 2.22h6.1c7.72-5.7 16.5-14.8 22.1-29 0 0 5.47-40.63-3.14-52.4z"/><path fill="#60B7EC" d="M102.2 5.04c.53-2.15 1.67-3.93 1.8-5.14H84.94c-4.57 0-6.68 3.08-6.68 3.08l-1.5 1.82c1.96 5.85 10.5 34.78-2.82 57.32 0 0-7.27 13.73-18.7 23.78h3.82c8.27-7.5 16.1-15 29.77-42.34L102.2 5.04zM50.83 43.72c.83 2.65 1.44 5.37 1.9 8.1 1.1 6.27 1.58 12.78.7 19.1-.87 6.2-4 10.9-8.25 14.98h3.47c7.76-8.12 10.42-18.38 10.42-18.38 2.4-19.64-2.45-31.32-4.76-35.6a3067.05 3067.05 0 01-5.64 6.73c.92 2.1 2.04 4.68 2.16 5.07z"/><path fill="#99DCF9" d="M24.04 85.9h14.32c5.18-6.75 9.34-18.53 2.08-37.5-4.9 5.76-9.66 11.3-13.84 16.06 1.3 4.64 2.22 12.67-2.56 21.44z"/><path fill="#DFF7F9" d="M13.1 78.83a55.34 55.34 0 01-4.9 3.6c.84.97 1.46 2.12 1.63 3.47H17c1.27-3.1 2-7.1.15-11-1.75 1.83-3.13 3.2-4.04 3.93z"/><path fill="#F86C15" d="M62.83 85.9H74.1l8.57-24.83c-3.8 5.54-11.84 19.16-19.84 24.83z"/><path fill="#3DA5EE" d="M58.07 47.56c2.53 19.9-3.72 31.87-9.43 38.34 19.4-17.97 12.34-49.18 9.25-58.28a3209.3 3209.3 0 01-3.82 4.56c1.78 5 4 15.38 4 15.38z"/><path fill="#60B7EC" d="M36.52 85.9H42c4.12-4.48 6.1-8.9 6.1-8.9 5.52-12.84.05-28.5-2.56-34.64-2.04 2.42-4.08 4.83-6.1 7.2 6.9 18.4 2.48 29.8-2.92 36.34zm-21.37-8.96c1.08 3.06.52 6.32-.4 8.96h4.88c3.94-7.05 3.85-13.12 3.06-17.02-3.08 3.42-5.67 6.2-7.55 8.06z"/></svg>