<svg xmlns="http://www.w3.org/2000/svg" width="104" height="86.021" version="1"><linearGradient id="a" x1="31.618" x2="87.202" y1="31.233" y2="63.324" gradientUnits="userSpaceOnUse"><stop offset="0" stop-color="#ED1C24"/><stop offset=".043" stop-color="#DF1C24"/><stop offset=".119" stop-color="#CC1C24"/><stop offset=".197" stop-color="#C11C24"/><stop offset=".281" stop-color="#BD1C24"/><stop offset=".668" stop-color="#ED1C24"/><stop offset=".888" stop-color="#BC1C24"/><stop offset="1" stop-color="#AB3E3A"/></linearGradient><path fill="url(#a)" d="M104 0H84.94c-4.57 0-6.68 3.08-6.68 3.08S22.24 71.5 13.1 78.94C5.15 85.4.95 85.96 0 86h74.1L104 0z"/><path fill="#FFF" d="M42.93 58.15c1.22.08 1.74.17 3.68 2.18 0 0 4.9 5.6 9.9 5.52 1.5-.06 2.67-.66 2.74-1.14 0 0 .2-.67-.93-.42 0 0-2.66.75-3.9-.46 0 0 1.13-1.72 3.1-1.7 1.2-.07 2.45.35 3.24 1.48 0 0 3.95 5.25-7.32 10.76-7.6 3.5-13.65 7.8-17.8 11.66h4.37c6.4-4.8 15.52-9.76 27.1-10.77 0 0-.12-.37-.2-.86-2.4-12.12 2.94-20.3 8.98-25 3.84-3.25 9.87-6.16 14.7-10.74l3.4-9.86c-7.96 8.7-28.5 7.16-42.5 28.27 0 0-3.06.35-5.12-3.56 0 0 4.27-.33 4.53-3.73 0 0-8.76 1.84-14.02 6.33 0 0-.07 2 6.05 2.05z"/></svg>